<?xml version="1.0" encoding="UTF-8"?>
<svg version="1.1" xmlns="http://www.w3.org/2000/svg" width="1280" height="1280">
<path d="M0 0 C422.4 0 844.8 0 1280 0 C1280 422.4 1280 844.8 1280 1280 C857.6 1280 435.2 1280 0 1280 C0 857.6 0 435.2 0 0 Z " fill="#0F1410" transform="translate(0,0)"/>
<path d="M0 0 C1.09784748 -0.00382555 2.19569496 -0.00765109 3.32681054 -0.01159257 C6.98291249 -0.02186055 10.63885557 -0.01794219 14.29496765 -0.01396179 C16.92556401 -0.01831171 19.5561591 -0.02349579 22.18675232 -0.02944946 C28.57726845 -0.04216214 34.96774249 -0.04399443 41.35826913 -0.0416492 C46.55624572 -0.03986191 51.7542096 -0.04162447 56.95218468 -0.04587364 C58.06438049 -0.04676643 58.06438049 -0.04676643 59.19904491 -0.04767724 C60.70562806 -0.04888907 62.21221122 -0.05010321 63.71879437 -0.05131962 C77.83002709 -0.06218209 91.94123588 -0.06003889 106.05246993 -0.05393478 C118.94056905 -0.04876765 131.82859253 -0.06001797 144.71667669 -0.07903299 C157.97323866 -0.09844062 171.22976491 -0.10666222 184.48634118 -0.10290974 C191.91962339 -0.10100202 199.35284126 -0.10344324 206.78611183 -0.11762428 C213.11475573 -0.12957646 219.44329568 -0.13090025 225.7719411 -0.11883412 C228.99589815 -0.11297197 232.21962761 -0.11341934 235.44357872 -0.12383652 C260.15307876 -0.1978943 260.15307876 -0.1978943 270.6726532 3.26069641 C272.54618469 3.83183167 272.54618469 3.83183167 274.45756531 4.414505 C282.45493274 7.3455309 290.30243208 10.56011798 298.10887146 13.96003723 C301.92136551 15.619775 305.74086445 17.26329025 309.55937195 18.90913391 C310.7784726 19.43519226 310.7784726 19.43519226 312.02220154 19.97187805 C321.84157244 24.20452623 331.69450232 28.3574494 341.5476532 32.51069641 C343.45920136 33.31682873 345.37074101 34.12298121 347.28227234 34.92915344 C351.150199 36.56022039 355.01831284 38.1908426 358.88652039 39.82124329 C364.57912259 42.22087564 370.27060175 44.62316187 375.9617157 47.02632141 C376.88900482 47.41784393 377.81629395 47.80936646 378.77168274 48.2127533 C383.42020017 50.17560218 388.06839717 52.13920536 392.71611023 54.10395813 C401.48318003 57.80917421 410.2531175 61.50713949 419.03300476 65.18190002 C423.16862443 66.91331477 427.30265469 68.6485061 431.43656921 70.38398743 C433.40306387 71.20830417 435.37033119 72.03078045 437.33842468 72.85127258 C440.07161787 73.99086878 442.80205508 75.13684947 445.5320282 76.28413391 C446.3269165 76.61355988 447.12180481 76.94298584 447.94078064 77.28239441 C461.48483932 82.99937492 473.23012532 90.42480165 479.6726532 104.26069641 C483.03464741 113.11231301 484.25426295 121.08733669 484.18731689 130.51205444 C484.19426242 131.78059641 484.20120795 133.04913837 484.20836395 134.356121 C484.22682037 137.83820777 484.22074606 141.31986434 484.21021092 144.80196774 C484.20317015 148.57232002 484.21925336 152.34258818 484.23220825 156.11291504 C484.25377104 163.48330475 484.25374153 170.85353961 484.24558271 178.22395045 C484.23926572 184.2170689 484.24043525 190.21014242 484.24685478 196.20326042 C484.24775644 197.05839636 484.24865809 197.9135323 484.24958707 198.79458145 C484.25143839 200.53212275 484.25330095 202.26966403 484.25517463 204.0072053 C484.27172561 220.27352365 484.26305631 236.53975507 484.24618905 252.80606817 C484.23148839 267.6702218 484.24613041 282.53417334 484.27495921 297.39830095 C484.30438656 312.68560024 484.31531616 327.97280637 484.30577701 343.26013273 C484.30475453 344.99073786 484.30375991 346.721343 484.3027935 348.45194817 C484.30231711 349.30329896 484.30184072 350.15464976 484.3013499 351.03179907 C484.29919051 357.01408485 484.30896424 362.99628193 484.32356453 368.97854805 C484.34112287 376.27411682 484.34092018 383.56942792 484.31821287 390.86498673 C484.30710336 394.58308574 484.30383269 398.30073135 484.32251358 402.01881027 C484.34254772 406.05835056 484.32346137 410.09679539 484.30084229 414.13632202 C484.31859588 415.8798805 484.31859588 415.8798805 484.33670813 417.65866238 C484.22058714 427.90150936 481.39804116 437.21037783 474.17468262 444.70736694 C473.62084396 445.24703598 473.06700531 445.78670502 472.49638367 446.34272766 C471.89884781 446.95252975 471.30131195 447.56233185 470.68566895 448.19061279 C468.73742684 450.16925932 466.76519555 452.12164667 464.7898407 454.07319641 C463.40984172 455.45792132 462.03088239 456.84368301 460.65290833 458.23042297 C457.77422752 461.11937067 454.88340659 463.99541463 451.98320007 466.86274719 C448.2842242 470.52180569 444.61762675 474.21145683 440.95957756 477.91137695 C438.12219436 480.77416415 435.26821327 483.61993627 432.40907669 486.46098328 C431.05090531 487.81451709 429.6978255 489.17318153 428.35020065 490.53721619 C426.45842688 492.44695571 424.54530914 494.33253488 422.62528992 496.21382141 C422.08359665 496.7696843 421.54190338 497.32554718 420.98379517 497.89825439 C412.51926075 506.05222474 402.38323726 506.84824656 391.12309265 506.71479797 C389.8145079 506.71538208 388.50592316 506.71596619 387.15768433 506.71656799 C383.60450401 506.71770559 380.05187484 506.69435351 376.4988215 506.66627216 C372.77263015 506.64109719 369.04642318 506.63890393 365.32015991 506.63417053 C358.27971141 506.62178765 351.23951431 506.58903035 344.19917601 506.54877257 C334.67447078 506.49550266 325.14969574 506.47407146 315.62487888 506.4507637 C300.64061571 506.41326485 285.65688282 506.33354344 270.6726532 506.26069641 C270.6726532 530.02069641 270.6726532 553.78069641 270.6726532 578.26069641 C173.9826532 578.26069641 77.2926532 578.26069641 -22.3273468 578.26069641 C-22.3273468 554.50069641 -22.3273468 530.74069641 -22.3273468 506.26069641 C-32.10101868 506.31870422 -41.87469055 506.37671204 -51.9445343 506.43647766 C-58.1424576 506.46203029 -64.34034261 506.48630762 -70.5382843 506.50483704 C-80.37240171 506.53447378 -90.20630449 506.56926247 -100.04023743 506.63789368 C-107.20314233 506.68785973 -114.36587265 506.72001836 -121.528947 506.73113889 C-125.31891957 506.73763548 -129.10839286 506.75281386 -132.8982048 506.78934669 C-136.47207818 506.82351584 -140.04525101 506.83370795 -143.61927223 506.82623482 C-145.54258836 506.82824666 -147.46582978 506.85503182 -149.38894653 506.88279724 C-159.69768045 506.82205476 -167.03381621 504.02471045 -174.4506073 496.82618713 C-174.9865451 496.28169922 -175.52248291 495.7372113 -176.07466125 495.17622375 C-176.67281143 494.58844147 -177.27096161 494.00065918 -177.88723755 493.39506531 C-179.83445982 491.47464771 -181.76303175 489.53673503 -183.69062805 487.59663391 C-185.05376045 486.23942114 -186.41755731 484.88287546 -187.78198242 483.52696228 C-190.62844073 480.69233792 -193.46549308 477.84870056 -196.29634094 474.99848938 C-199.90663341 471.365318 -203.5411728 467.75756732 -207.18342304 464.15646935 C-210.00217374 461.36341721 -212.80657024 458.55628724 -215.60706139 455.7449379 C-216.94083365 454.40968915 -218.2791354 453.07894763 -219.62220192 451.75304794 C-221.50536696 449.89007166 -223.36802681 448.0086098 -225.227005 446.12153625 C-225.77306396 445.58919373 -226.31912292 445.0568512 -226.88172913 444.50837708 C-235.0625012 436.08137336 -237.07140884 426.66949428 -236.94880676 415.24311829 C-236.95519558 413.97557961 -236.96158441 412.70804092 -236.96816683 411.40209198 C-236.98503887 407.91343889 -236.97106209 404.42551154 -236.95165205 400.93689728 C-236.93614486 397.16313032 -236.9496475 393.3894477 -236.95939636 389.61567688 C-236.97388487 382.23459752 -236.96172745 374.85379427 -236.94028312 367.47274113 C-236.91620776 358.86853569 -236.91799152 350.26439265 -236.92058903 341.66016102 C-236.92427513 326.30299067 -236.90348906 310.94594995 -236.86933899 295.58882141 C-236.83625031 280.70337142 -236.82208121 265.81805744 -236.82832336 250.93257141 C-236.83509509 234.70452994 -236.83260494 218.47654536 -236.81296396 202.24851227 C-236.81192448 201.38950553 -236.81088499 200.5304988 -236.80981401 199.64546156 C-236.80772319 197.92043413 -236.80561222 196.19540673 -236.80348083 194.47037935 C-236.79659978 188.47966316 -236.79591351 182.48896455 -236.79736328 176.49824524 C-236.79880647 169.19275814 -236.78904878 161.8873816 -236.76541692 154.58193111 C-236.75359791 150.85800666 -236.74640432 147.13423584 -236.75225449 143.41029358 C-236.75841975 139.36613045 -236.74118983 135.32239569 -236.72175598 131.27827454 C-236.72708391 130.11162514 -236.73241183 128.94497574 -236.73790121 127.74297333 C-236.60203652 111.31659085 -230.89219396 99.22005865 -219.3039093 87.76850891 C-211.97067191 81.59011205 -203.71988458 78.14005318 -194.91624451 74.56135559 C-191.74102444 73.27020528 -188.57277711 71.962318 -185.4039917 70.6554718 C-183.69984738 69.95272594 -181.99538303 69.2507557 -180.2906189 68.54951477 C-170.29621184 64.435042 -160.34349878 60.22256551 -150.3898468 56.01069641 C-148.48273873 55.20445627 -146.57559329 54.39830454 -144.66841125 53.59223938 C-140.81123731 51.96191845 -136.95423923 50.33118251 -133.09736633 48.70014954 C-127.41309246 46.29659732 -121.72781088 43.8954366 -116.04219055 41.49507141 C-115.11497192 41.10359421 -114.1877533 40.712117 -113.23243713 40.30877686 C-108.57793846 38.34372907 -103.92323323 36.37917209 -99.26826477 34.41523743 C-90.55799749 30.73977335 -81.84958755 27.06009286 -73.14750671 23.36528015 C-69.08169828 21.6392904 -65.01486297 19.91572767 -60.94795227 18.19233704 C-59.0280068 17.37795031 -57.10855314 16.56240289 -55.18965149 15.74555969 C-46.39104608 12.00044003 -37.58577381 8.2748433 -28.65937805 4.84272766 C-27.47706604 4.3874469 -26.29475403 3.93216614 -25.07661438 3.46308899 C-16.70519415 0.77836902 -8.76182507 -0.03282917 0 0 Z " fill="#0F1410" transform="translate(516.3273468017578,350.7393035888672)"/>
<path d="M0 0 C1.09784748 -0.00382555 2.19569496 -0.00765109 3.32681054 -0.01159257 C6.98291249 -0.02186055 10.63885557 -0.01794219 14.29496765 -0.01396179 C16.92556401 -0.01831171 19.5561591 -0.02349579 22.18675232 -0.02944946 C28.57726845 -0.04216214 34.96774249 -0.04399443 41.35826913 -0.0416492 C46.55624572 -0.03986191 51.7542096 -0.04162447 56.95218468 -0.04587364 C58.06438049 -0.04676643 58.06438049 -0.04676643 59.19904491 -0.04767724 C60.70562806 -0.04888907 62.21221122 -0.05010321 63.71879437 -0.05131962 C77.83002709 -0.06218209 91.94123588 -0.06003889 106.05246993 -0.05393478 C118.94056905 -0.04876765 131.82859253 -0.06001797 144.71667669 -0.07903299 C157.97323866 -0.09844062 171.22976491 -0.10666222 184.48634118 -0.10290974 C191.91962339 -0.10100202 199.35284126 -0.10344324 206.78611183 -0.11762428 C213.11475573 -0.12957646 219.44329568 -0.13090025 225.7719411 -0.11883412 C228.99589815 -0.11297197 232.21962761 -0.11341934 235.44357872 -0.12383652 C260.15307876 -0.1978943 260.15307876 -0.1978943 270.6726532 3.26069641 C272.54618469 3.83183167 272.54618469 3.83183167 274.45756531 4.414505 C282.45493274 7.3455309 290.30243208 10.56011798 298.10887146 13.96003723 C301.92136551 15.619775 305.74086445 17.26329025 309.55937195 18.90913391 C310.7784726 19.43519226 310.7784726 19.43519226 312.02220154 19.97187805 C321.84157244 24.20452623 331.69450232 28.3574494 341.5476532 32.51069641 C343.45920136 33.31682873 345.37074101 34.12298121 347.28227234 34.92915344 C351.150199 36.56022039 355.01831284 38.1908426 358.88652039 39.82124329 C364.57912259 42.22087564 370.27060175 44.62316187 375.9617157 47.02632141 C376.88900482 47.41784393 377.81629395 47.80936646 378.77168274 48.2127533 C383.42020017 50.17560218 388.06839717 52.13920536 392.71611023 54.10395813 C401.48318003 57.80917421 410.2531175 61.50713949 419.03300476 65.18190002 C423.16862443 66.91331477 427.30265469 68.6485061 431.43656921 70.38398743 C433.40306387 71.20830417 435.37033119 72.03078045 437.33842468 72.85127258 C440.07161787 73.99086878 442.80205508 75.13684947 445.5320282 76.28413391 C446.3269165 76.61355988 447.12180481 76.94298584 447.94078064 77.28239441 C461.48483932 82.99937492 473.23012532 90.42480165 479.6726532 104.26069641 C483.03464741 113.11231301 484.25426295 121.08733669 484.18731689 130.51205444 C484.19426242 131.78059641 484.20120795 133.04913837 484.20836395 134.356121 C484.22682037 137.83820777 484.22074606 141.31986434 484.21021092 144.80196774 C484.20317015 148.57232002 484.21925336 152.34258818 484.23220825 156.11291504 C484.25377104 163.48330475 484.25374153 170.85353961 484.24558271 178.22395045 C484.23926572 184.2170689 484.24043525 190.21014242 484.24685478 196.20326042 C484.24775644 197.05839636 484.24865809 197.9135323 484.24958707 198.79458145 C484.25143839 200.53212275 484.25330095 202.26966403 484.25517463 204.0072053 C484.27172561 220.27352365 484.26305631 236.53975507 484.24618905 252.80606817 C484.23148839 267.6702218 484.24613041 282.53417334 484.27495921 297.39830095 C484.30438656 312.68560024 484.31531616 327.97280637 484.30577701 343.26013273 C484.30475453 344.99073786 484.30375991 346.721343 484.3027935 348.45194817 C484.30231711 349.30329896 484.30184072 350.15464976 484.3013499 351.03179907 C484.29919051 357.01408485 484.30896424 362.99628193 484.32356453 368.97854805 C484.34112287 376.27411682 484.34092018 383.56942792 484.31821287 390.86498673 C484.30710336 394.58308574 484.30383269 398.30073135 484.32251358 402.01881027 C484.34254772 406.05835056 484.32346137 410.09679539 484.30084229 414.13632202 C484.31859588 415.8798805 484.31859588 415.8798805 484.33670813 417.65866238 C484.22058714 427.90150936 481.39804116 437.21037783 474.17468262 444.70736694 C473.62084396 445.24703598 473.06700531 445.78670502 472.49638367 446.34272766 C471.89884781 446.95252975 471.30131195 447.56233185 470.68566895 448.19061279 C468.73742684 450.16925932 466.76519555 452.12164667 464.7898407 454.07319641 C463.40984172 455.45792132 462.03088239 456.84368301 460.65290833 458.23042297 C457.77422752 461.11937067 454.88340659 463.99541463 451.98320007 466.86274719 C448.2842242 470.52180569 444.61762675 474.21145683 440.95957756 477.91137695 C438.12219436 480.77416415 435.26821327 483.61993627 432.40907669 486.46098328 C431.05090531 487.81451709 429.6978255 489.17318153 428.35020065 490.53721619 C426.45842688 492.44695571 424.54530914 494.33253488 422.62528992 496.21382141 C422.08359665 496.7696843 421.54190338 497.32554718 420.98379517 497.89825439 C412.51926075 506.05222474 402.38323726 506.84824656 391.12309265 506.71479797 C389.8145079 506.71538208 388.50592316 506.71596619 387.15768433 506.71656799 C383.60450401 506.71770559 380.05187484 506.69435351 376.4988215 506.66627216 C372.77263015 506.64109719 369.04642318 506.63890393 365.32015991 506.63417053 C358.27971141 506.62178765 351.23951431 506.58903035 344.19917601 506.54877257 C334.67447078 506.49550266 325.14969574 506.47407146 315.62487888 506.4507637 C300.64061571 506.41326485 285.65688282 506.33354344 270.6726532 506.26069641 C270.6726532 482.50069641 270.6726532 458.74069641 270.6726532 434.26069641 C280.37155945 434.2233136 290.0704657 434.18593079 300.0632782 434.14741516 C306.19740723 434.11714933 312.33151716 434.08613311 318.46562195 434.05171204 C328.20795482 433.99718395 337.95023459 433.94577309 347.69267273 433.91426086 C354.78748157 433.89129839 361.88215153 433.85792011 368.97685027 433.81199485 C372.73401567 433.78803884 376.49104333 433.76932573 380.24828339 433.7630825 C384.44104651 433.75592055 388.63332976 433.72550659 392.82597351 433.69306946 C394.07394211 433.69450455 395.32191071 433.69593964 396.60769653 433.69741821 C398.31981071 433.67861099 398.31981071 433.67861099 400.06651306 433.65942383 C401.05836231 433.65481486 402.05021156 433.6502059 403.07211685 433.64545727 C406.11747204 433.1948835 407.47716823 432.39265935 409.6726532 430.26069641 C410.73528327 427.07280618 410.80227554 424.80539302 410.80966759 421.45505714 C410.81474213 420.23646244 410.81981667 419.01786773 410.82504499 417.76234591 C410.82564667 416.40296026 410.82614575 415.04357456 410.82655334 413.68418884 C410.8305677 412.2456066 410.83500588 410.8070255 410.8398329 409.36844575 C410.85180675 405.40572841 410.8574487 401.44302326 410.86201406 397.48029137 C410.86796688 393.21026179 410.87957733 388.9402468 410.89030457 384.67022705 C410.91483287 374.35472339 410.92945478 364.0392149 410.94236463 353.72369105 C410.94607575 350.81149057 410.95004903 347.89929058 410.9541173 344.98709059 C410.97934903 326.91190343 411.00140722 308.83671554 411.01384544 290.76151466 C411.01677524 286.57439293 411.0197369 282.38727121 411.02275085 278.20014954 C411.02386993 276.63907479 411.02386993 276.63907479 411.02501161 275.04646318 C411.03767383 258.17557948 411.07090865 241.30480096 411.11255269 224.43396647 C411.15493346 207.12318667 411.17853586 189.81246079 411.18376601 172.50162923 C411.18718412 162.77802366 411.19898659 153.05458258 411.23186874 143.33102798 C411.25981723 135.05276929 411.27089145 126.7747088 411.25967328 118.49640657 C411.25447358 114.27090188 411.25745793 110.04581262 411.28213882 105.82036781 C411.30453538 101.95384083 411.30396725 98.08802998 411.28493495 94.22149126 C411.28212139 92.82108771 411.28780851 91.42063657 411.30274789 90.02030988 C411.32178912 88.11963703 411.30710492 86.21871527 411.29068565 84.31801796 C411.29204218 83.26136362 411.29339871 82.20470927 411.29479635 81.1160351 C410.40852614 77.04847989 409.06207632 75.66232158 405.6726532 73.26069641 C402.53015125 72.55024452 399.47432637 72.58926936 396.26318359 72.63149071 C395.3066696 72.6242235 394.3501556 72.6169563 393.36465633 72.60946888 C390.14051106 72.59113549 386.91754292 72.60861365 383.69340515 72.6257782 C381.36625972 72.62002034 379.03911882 72.61208149 376.7119875 72.60214198 C370.97505684 72.58339768 365.23847272 72.58802079 359.50153715 72.6023958 C352.63093912 72.61831901 345.76047429 72.60527943 338.88988289 72.59133624 C325.42793155 72.56498426 311.96609872 72.56729869 298.50413606 72.5817308 C286.7235139 72.59429871 274.94293522 72.59759671 263.16230774 72.59161758 C261.99106235 72.5910447 261.99106235 72.5910447 260.79615543 72.59046023 C257.6266699 72.58890359 254.45718439 72.5873116 251.28769891 72.58566142 C221.54335772 72.57035954 191.79909209 72.5842446 162.05476256 72.6111459 C135.61713093 72.63487471 109.17961971 72.63275161 82.74198914 72.60884094 C53.05275086 72.58207935 23.36357937 72.57144465 -6.32566929 72.58690226 C-9.48944662 72.5885059 -12.65322398 72.59007009 -15.81700134 72.59161758 C-16.5960286 72.59201297 -17.37505585 72.59240836 -18.17768999 72.59281573 C-29.9521524 72.59850788 -41.7265666 72.59184281 -53.50102234 72.57921982 C-66.88645575 72.56494147 -80.2717519 72.56845915 -93.65716815 72.59562354 C-100.49114655 72.60903417 -107.32490173 72.61450164 -114.15887833 72.59737778 C-120.40860746 72.58253548 -126.6578636 72.59057223 -132.9075495 72.61726554 C-135.17462939 72.62287478 -137.44174883 72.61995586 -139.70880353 72.6078866 C-142.77907135 72.59278852 -145.8476967 72.60816473 -148.9178772 72.63149071 C-150.25330698 72.61393196 -150.25330698 72.61393196 -151.61571515 72.59601849 C-155.87883315 72.66122353 -157.8094857 72.89378082 -161.3761133 75.42081225 C-163.64230052 78.71908957 -163.95350859 80.35852128 -163.95655251 84.32804871 C-163.97611061 86.16713901 -163.97611061 86.16713901 -163.99606383 88.04338264 C-163.98525394 89.40081777 -163.97397068 90.75824919 -163.96226501 92.11567688 C-163.96802615 93.56011882 -163.97596723 95.00455343 -163.98590124 96.4489727 C-164.00679938 100.41877291 -163.99644629 104.38797315 -163.98097014 108.35777569 C-163.96967255 112.63871033 -163.98711141 116.91954069 -164.00086975 121.20045471 C-164.02312377 129.58696894 -164.01829137 137.97325965 -164.00380655 146.3597827 C-163.9925228 153.17457129 -163.99097966 159.98929716 -163.99642563 166.80409241 C-163.99719179 167.77334778 -163.99795796 168.74260315 -163.99874734 169.74122989 C-164.00034594 171.71014358 -164.001967 173.67905726 -164.0036103 175.64797091 C-164.01787414 194.11825867 -164.00146512 212.58842242 -163.97460847 231.05868983 C-163.95226911 246.91319685 -163.95614906 262.76752083 -163.97920227 278.62202454 C-164.00594906 297.02540413 -164.01650078 315.42867499 -164.00114095 333.8320713 C-163.99954818 335.79381432 -163.99797632 337.75555736 -163.99642563 339.71730042 C-163.99565425 340.68256051 -163.99488287 341.6478206 -163.99408812 342.642331 C-163.98976776 349.45034699 -163.99706491 356.25829411 -164.00882339 363.06629944 C-164.02283449 371.36101504 -164.01907781 379.65549401 -163.99241967 387.95018244 C-163.97926266 392.18377617 -163.97416092 396.41697513 -163.99066544 400.6505661 C-164.00553947 404.52445713 -163.99741992 408.39758662 -163.97077768 412.27140832 C-163.96518175 413.67442643 -163.96805816 415.07750857 -163.98015662 416.48048568 C-164.18594965 424.46039424 -164.18594965 424.46039424 -161.14793682 431.58668041 C-157.97763066 433.46825242 -156.23024227 433.88977426 -152.56298828 433.89993286 C-151.41179001 433.91522034 -150.26059174 433.93050781 -149.07450867 433.94625854 C-147.19392258 433.93332008 -147.19392258 433.93332008 -145.27534485 433.92012024 C-143.93470775 433.92857705 -142.59408294 433.93922283 -141.253479 433.95188904 C-137.6214879 433.98001718 -133.99008773 433.9775673 -130.35802054 433.96959519 C-126.55960628 433.96646879 -122.76137979 433.99150831 -118.96304321 434.0135498 C-111.77373461 434.05099461 -104.58461516 434.06313804 -97.39521867 434.06617421 C-87.67785052 434.07174184 -77.96066719 434.11642835 -68.24340343 434.15891552 C-52.93800528 434.2248053 -37.63301475 434.23845862 -22.3273468 434.26069641 C-22.3273468 458.02069641 -22.3273468 481.78069641 -22.3273468 506.26069641 C-56.28041407 506.46221158 -56.28041407 506.46221158 -70.5382843 506.50483704 C-80.37240171 506.53447378 -90.20630449 506.56926247 -100.04023743 506.63789368 C-107.20314233 506.68785973 -114.36587265 506.72001836 -121.528947 506.73113889 C-125.31891957 506.73763548 -129.10839286 506.75281386 -132.8982048 506.78934669 C-136.47207818 506.82351584 -140.04525101 506.83370795 -143.61927223 506.82623482 C-145.54258836 506.82824666 -147.46582978 506.85503182 -149.38894653 506.88279724 C-159.69768045 506.82205476 -167.03381621 504.02471045 -174.4506073 496.82618713 C-174.9865451 496.28169922 -175.52248291 495.7372113 -176.07466125 495.17622375 C-176.67281143 494.58844147 -177.27096161 494.00065918 -177.88723755 493.39506531 C-179.83445982 491.47464771 -181.76303175 489.53673503 -183.69062805 487.59663391 C-185.05376045 486.23942114 -186.41755731 484.88287546 -187.78198242 483.52696228 C-190.62844073 480.69233792 -193.46549308 477.84870056 -196.29634094 474.99848938 C-199.90663341 471.365318 -203.5411728 467.75756732 -207.18342304 464.15646935 C-210.00217374 461.36341721 -212.80657024 458.55628724 -215.60706139 455.7449379 C-216.94083365 454.40968915 -218.2791354 453.07894763 -219.62220192 451.75304794 C-221.50536696 449.89007166 -223.36802681 448.0086098 -225.227005 446.12153625 C-225.77306396 445.58919373 -226.31912292 445.0568512 -226.88172913 444.50837708 C-235.0625012 436.08137336 -237.07140884 426.66949428 -236.94880676 415.24311829 C-236.95519558 413.97557961 -236.96158441 412.70804092 -236.96816683 411.40209198 C-236.98503887 407.91343889 -236.97106209 404.42551154 -236.95165205 400.93689728 C-236.93614486 397.16313032 -236.9496475 393.3894477 -236.95939636 389.61567688 C-236.97388487 382.23459752 -236.96172745 374.85379427 -236.94028312 367.47274113 C-236.91620776 358.86853569 -236.91799152 350.26439265 -236.92058903 341.66016102 C-236.92427513 326.30299067 -236.90348906 310.94594995 -236.86933899 295.58882141 C-236.83625031 280.70337142 -236.82208121 265.81805744 -236.82832336 250.93257141 C-236.83509509 234.70452994 -236.83260494 218.47654536 -236.81296396 202.24851227 C-236.81192448 201.38950553 -236.81088499 200.5304988 -236.80981401 199.64546156 C-236.80772319 197.92043413 -236.80561222 196.19540673 -236.80348083 194.47037935 C-236.79659978 188.47966316 -236.79591351 182.48896455 -236.79736328 176.49824524 C-236.79880647 169.19275814 -236.78904878 161.8873816 -236.76541692 154.58193111 C-236.75359791 150.85800666 -236.74640432 147.13423584 -236.75225449 143.41029358 C-236.75841975 139.36613045 -236.74118983 135.32239569 -236.72175598 131.27827454 C-236.72708391 130.11162514 -236.73241183 128.94497574 -236.73790121 127.74297333 C-236.60203652 111.31659085 -230.89219396 99.22005865 -219.3039093 87.76850891 C-211.97067191 81.59011205 -203.71988458 78.14005318 -194.91624451 74.56135559 C-191.74102444 73.27020528 -188.57277711 71.962318 -185.4039917 70.6554718 C-183.69984738 69.95272594 -181.99538303 69.2507557 -180.2906189 68.54951477 C-170.29621184 64.435042 -160.34349878 60.22256551 -150.3898468 56.01069641 C-148.48273873 55.20445627 -146.57559329 54.39830454 -144.66841125 53.59223938 C-140.81123731 51.96191845 -136.95423923 50.33118251 -133.09736633 48.70014954 C-127.41309246 46.29659732 -121.72781088 43.8954366 -116.04219055 41.49507141 C-115.11497192 41.10359421 -114.1877533 40.712117 -113.23243713 40.30877686 C-108.57793846 38.34372907 -103.92323323 36.37917209 -99.26826477 34.41523743 C-90.55799749 30.73977335 -81.84958755 27.06009286 -73.14750671 23.36528015 C-69.08169828 21.6392904 -65.01486297 19.91572767 -60.94795227 18.19233704 C-59.0280068 17.37795031 -57.10855314 16.56240289 -55.18965149 15.74555969 C-46.39104608 12.00044003 -37.58577381 8.2748433 -28.65937805 4.84272766 C-27.47706604 4.3874469 -26.29475403 3.93216614 -25.07661438 3.46308899 C-16.70519415 0.77836902 -8.76182507 -0.03282917 0 0 Z " fill="#FACA49" transform="translate(516.3273468017578,350.7393035888672)"/>
<path d="M0 0 C96.69 0 193.38 0 293 0 C293 23.76 293 47.52 293 72 C196.31 72 99.62 72 0 72 C0 48.24 0 24.48 0 0 Z " fill="#FACA49" transform="translate(494,857)"/>
<path d="M0 0 C92.73 0 185.46 0 281 0 C281 23.43 281 46.86 281 71 C188.27 71 95.54 71 0 71 C0 47.57 0 24.14 0 0 Z " fill="#F9C949" transform="translate(498,507)"/>
</svg>
