<?xml version="1.0" encoding="UTF-8"?>
<svg version="1.1" xmlns="http://www.w3.org/2000/svg" width="500" height="500">
    <path d="M 0 0 C 165 0 330 0 500 0 C 500 165 500 330 500 500 C 335 500 170 500 0 500 C 0 335 0 170 0 0 Z M 0 0"
        fill="#161A17" />
    <path
        d="M 248.132812 69.621094 C 250.8125 70.132812 250.8125 70.132812 253.730469 71.429688 C 254.929688 74.164062 254.929688 74.164062 255.65625 77.703125 C 255.953125 79.027344 256.25 80.351562 256.546875 81.675781 C 256.769531 82.714844 256.769531 82.714844 257 83.777344 C 264.996094 120.257812 282.449219 155.132812 308.777344 182.507812 C 310.453125 184.261719 312.03125 186.058594 313.609375 187.894531 C 330.710938 206.789062 353.457031 221.875 376.863281 232.425781 C 378.765625 233.289062 380.652344 234.175781 382.539062 235.066406 C 398.339844 242.351562 415.40625 247.53125 432.703125 250.121094 C 436.976562 250.8125 439.566406 251.503906 442.164062 254.972656 C 442.574219 257.289062 442.574219 257.289062 442.164062 259.492188 C 439.980469 262.273438 437.902344 262.742188 434.433594 263.371094 C 433.433594 263.566406 432.429688 263.757812 431.398438 263.957031 C 429.773438 264.265625 429.773438 264.265625 428.113281 264.578125 C 368.8125 276.675781 318.996094 311.523438 286.058594 360.351562 C 271.296875 382.886719 261.054688 408.742188 256.09375 434.976562 C 255.863281 436.160156 255.863281 436.160156 255.628906 437.371094 C 255.507812 438.054688 255.386719 438.738281 255.261719 439.441406 C 254.535156 441.617188 253.769531 442.597656 251.867188 443.941406 C 248.425781 443.660156 248.425781 443.660156 245.335938 443.039062 C 243.421875 437.789062 241.929688 432.59375 240.683594 427.160156 C 232.464844 391.515625 215.082031 357.835938 189.328125 331.023438 C 187.644531 329.265625 186.054688 327.453125 184.46875 325.609375 C 171.964844 311.800781 156.121094 300.546875 139.925781 291.140625 C 139.359375 290.808594 138.792969 290.476562 138.210938 290.136719 C 116.210938 277.398438 92.511719 268.996094 67.433594 264.003906 C 66.464844 263.804688 65.492188 263.609375 64.492188 263.402344 C 63.632812 263.238281 62.773438 263.070312 61.890625 262.898438 C 58.828125 261.929688 57.464844 260.511719 55.96875 257.796875 C 55.96875 255.878906 55.96875 255.878906 57.710938 253.625 C 61.210938 250.394531 65.472656 250.082031 70.078125 249.320312 C 120.609375 239.765625 169.769531 211.0625 200.347656 170.589844 C 201.480469 169.09375 202.636719 167.621094 203.796875 166.144531 C 222.960938 141.410156 236.46875 111.164062 241.828125 80.691406 C 242.808594 75.542969 243.851562 72.902344 248.132812 69.621094 Z M 247.203125 72.332031 C 245.605469 76.558594 244.578125 80.832031 243.5625 85.214844 C 235.972656 117.636719 221.824219 147.484375 200.558594 173.597656 C 199.851562 174.480469 199.140625 175.359375 198.410156 176.269531 C 190.640625 185.703125 182.222656 194.871094 172.574219 202.53125 C 171.789062 203.191406 171 203.851562 170.191406 204.535156 C 140.867188 228.914062 106.082031 244.546875 68.425781 252.304688 C 67.4375 252.507812 66.449219 252.714844 65.433594 252.929688 C 64.550781 253.105469 63.671875 253.28125 62.761719 253.464844 C 60.472656 253.933594 60.472656 253.933594 58.769531 255.878906 C 59.066406 257.78125 59.066406 257.78125 59.703125 259.492188 C 60.507812 259.679688 61.316406 259.867188 62.144531 260.058594 C 102.585938 269.445312 138.832031 283.449219 170.707031 310.125 C 171.449219 310.742188 172.1875 311.355469 172.945312 311.992188 C 184.242188 321.628906 194.40625 331.859375 203.359375 343.582031 C 203.746094 344.078125 204.136719 344.578125 204.535156 345.089844 C 225.996094 372.578125 239.496094 404.960938 245.882812 438.746094 C 246.121094 440.339844 246.121094 440.339844 247.203125 441.230469 C 248.753906 441.265625 250.3125 441.269531 251.867188 441.230469 C 252.027344 440.535156 252.191406 439.839844 252.363281 439.125 C 257.414062 417.832031 263.449219 397.664062 273.320312 377.9375 C 273.613281 377.34375 273.910156 376.75 274.210938 376.140625 C 281.523438 361.570312 291.140625 347.550781 302.238281 335.441406 C 302.945312 334.667969 303.65625 333.894531 304.386719 333.097656 C 305.804688 331.5625 307.234375 330.03125 308.671875 328.507812 C 310.402344 326.652344 312.066406 324.757812 313.722656 322.839844 C 342.546875 291.019531 385.53125 271.734375 427.238281 262.207031 C 427.933594 262.046875 428.628906 261.882812 429.347656 261.71875 C 432.679688 260.949219 436.019531 260.203125 439.367188 259.492188 C 439.367188 258 439.367188 256.511719 439.367188 254.972656 C 435.746094 253.363281 432.152344 252.585938 428.277344 251.8125 C 393.773438 244.871094 361.214844 230.609375 333.957031 208.859375 C 333.449219 208.460938 332.941406 208.0625 332.417969 207.648438 C 319.664062 197.542969 307.496094 186.375 297.574219 173.597656 C 296.910156 172.757812 296.910156 172.757812 296.234375 171.898438 C 272.835938 142.152344 260.050781 109.492188 251.867188 73.238281 C 250.328125 72.9375 248.789062 72.640625 247.203125 72.332031 Z M 247.203125 72.332031"
        fill="#1E221F" />
    <path
        d="M 498.132812 387.882812 C 498.75 387.882812 499.367188 387.882812 500 387.882812 C 493.617188 423.324219 474.585938 455.414062 444.328125 476.6875 C 427.914062 487.824219 404.78125 500 384.328125 500 C 384.636719 499.105469 384.945312 498.210938 385.261719 497.289062 C 387.460938 496.605469 389.539062 496.101562 391.792969 495.648438 C 415.984375 490.246094 439.027344 479.421875 456.71875 462.367188 C 457.882812 461.253906 459.078125 460.175781 460.277344 459.101562 C 479.460938 441.59375 490.769531 416.527344 495.703125 391.773438 C 496.269531 389.691406 496.269531 389.691406 498.132812 387.882812 Z M 498.132812 387.882812"
        fill="#1E221F" />
    <path
        d="M 114.738281 0 C 113.371094 3.398438 113.371094 3.398438 111.1875 4.355469 C 110.507812 4.492188 109.832031 4.628906 109.132812 4.769531 C 107.996094 5.015625 107.996094 5.015625 106.835938 5.265625 C 106.019531 5.429688 105.203125 5.59375 104.359375 5.765625 C 79.917969 11.238281 59.296875 22.152344 41.042969 38.878906 C 40.277344 39.5625 39.511719 40.25 38.71875 40.957031 C 21.152344 57.1875 10.84375 78.734375 4.738281 101.179688 C 4.484375 102.109375 4.484375 102.109375 4.226562 103.054688 C 3.894531 104.28125 3.570312 105.507812 3.253906 106.738281 C 2.84375 108.242188 2.363281 109.730469 1.867188 111.210938 C 0.941406 111.660156 0.941406 111.660156 0 112.117188 C -0.21875 107.0625 0.515625 102.746094 1.867188 97.875 C 2.070312 97.132812 2.277344 96.386719 2.488281 95.621094 C 12.074219 62.550781 35.503906 33.441406 66.230469 16.273438 C 80.078125 9.035156 98.722656 0 114.738281 0 Z M 114.738281 0"
        fill="#1E221F" />
    <path
        d="M 383.394531 0 C 410.519531 3.496094 436.179688 15.480469 456.15625 33.453125 C 456.691406 33.933594 457.230469 34.414062 457.78125 34.910156 C 480.042969 55.070312 492.816406 79.796875 499.066406 108.5 C 499.371094 109.707031 499.675781 110.914062 500 112.117188 C 498.152344 111.667969 498.152344 111.667969 496.269531 111.210938 C 495.894531 109.46875 495.894531 109.46875 495.511719 107.695312 C 487.933594 73.972656 469.6875 43.328125 439.324219 24.128906 C 422.875 14.015625 405.757812 7.765625 386.792969 3.546875 C 385.980469 3.269531 385.164062 2.996094 384.328125 2.710938 C 384.019531 1.816406 383.710938 0.921875 383.394531 0 Z M 383.394531 0"
        fill="#1E221F" />
    <path
        d="M 0 388.789062 C 0.617188 388.789062 1.230469 388.789062 1.867188 388.789062 C 2.027344 389.425781 2.191406 390.0625 2.363281 390.71875 C 5.609375 403.21875 8.9375 415.222656 14.925781 426.761719 C 15.429688 427.765625 15.9375 428.769531 16.460938 429.804688 C 32.191406 459.621094 59.914062 481.488281 92.585938 491.851562 C 98.074219 493.523438 103.636719 494.902344 109.269531 496.039062 C 111.039062 496.421875 111.039062 496.421875 113.804688 497.289062 C 114.113281 498.183594 114.421875 499.078125 114.738281 500 C 80.613281 496.101562 49.074219 477.550781 27.351562 452.050781 C 13.980469 435.429688 -1.15625 410.660156 0 388.789062 Z M 0 388.789062"
        fill="#1E221F" />
</svg>