<svg height="200" width="200" viewBox="-100 -100 400 400" xmlns="http://www.w3.org/2000/svg">
  <!-- Base large -->
  <rect x="0" y="30" width="200" height="190" rx="4" ry="4" fill="#a7a9ac" />

  <!-- Base haute -->
  <rect x="0" y="0" width="180" height="100" rx="4" ry="4" fill="#a7a9ac" />

  <!-- Bande sombre -->
  <rect x="0" y="21" width="200" height="30" fill="#939598" />

  <!-- Lignes décoratives -->
  <rect x="-4" y="24" width="208" height="3" fill="#a7a9ac" />
  <rect x="-4" y="30" width="208" height="3" fill="#a7a9ac" />
  <rect x="-4" y="36" width="208" height="3" fill="#a7a9ac" />
  <rect x="-4" y="42" width="208" height="3" fill="#a7a9ac" />

  <!-- Indents latéraux -->
  <rect x="0" y="80" width="4" height="130" fill="#939598" />
  <rect x="196" y="80" width="4" height="130" fill="#939598" />

  <!-- Ovale supérieur -->
  <ellipse cx="100" cy="20" rx="70" ry="13" fill="#939598" stroke="#a7a9ac" stroke-width="4" />

  <!-- Label -->
  <defs>
    <clipPath id="image">
      <rect x="25" y="60" width="150" height="150" rx="20" ry="20" />
    </clipPath>
  </defs>
  <image href="https://github.com/cartridge-gg/presets/blob/main/configs/dragark/icon.png?raw=true" x="25" y="60"
    width="150" height="150" clip-path="url(#image)" />
  <rect x="25" y="60" width="150" height="150" rx="20" ry="20" fill="none" stroke="#000000" stroke-width="2" />
</svg>