<svg fill="#000000" version="1.1" id="Capa_1" xmlns="http://www.w3.org/2000/svg"
  xmlns:xlink="http://www.w3.org/1999/xlink" width="565.525px" height="565.525px">
  <g>
    <g>
      <path fill="#939598" d="M533.102,473.522c13.334-0.698,23.984-2.069,23.984-18.844c0-20.099,4.418-88.024,6.027-89.634s2.412-4.021,2.412-4.021
			v-4.003c-15.553,10.024-31.408,21.775-32.449,25.233L533.102,473.522z" />
      <path fill="#a7a9ac"
        d="M38.543,382.004v91.843c0.686,0.043,1.365,0.079,2.05,0.128c4.976,0.355,28.134,0.502,58.238,0.526V115.68
			c-30.838,8.874-63.366,20.851-95.814,37.118c0,0-3.017-0.379-3.017,11.077v185.882C17.84,360.981,38.543,375.418,38.543,382.004z" />
      <path fill="#a7a9ac" d="M526.98,473.847v-91.843c0-6.586,20.705-21.022,38.545-32.24V163.875c0-11.457-3.018-11.077-3.018-11.077
			c-36.695-18.397-73.508-31.329-107.842-40.453v362.156c35.846,0,64.641-0.135,70.264-0.532
			C525.623,473.92,526.301,473.883,526.98,473.847z" />
      <path fill="#939598" d="M8.439,454.679c0,16.774,10.648,18.146,23.984,18.844v-91.519C31.408,378.772,15.551,367.046,0,357.021v4.009
			c0,0,0.802,2.411,2.411,4.021C4.021,366.661,8.439,434.58,8.439,454.679z" />
      <path fill="#939598" d="M168.227,451.784h229.078c14.932,0,27.086-12.148,27.086-27.088V161.323c0-14.933-12.148-27.087-27.086-27.087H168.227
			c-14.933,0-27.087,12.148-27.087,27.087v263.374C141.139,439.63,153.288,451.784,168.227,451.784z" />
      <path fill="#a7a9ac" d="M104.952,474.507c72.026,0.031,177.811-0.538,177.811-0.538s94.591,0.508,165.779,0.532V111.512h2.961
			c-94.137-24.48-168.74-20.208-168.74-20.208s-81.041-4.651-180.779,23.47h2.968V474.507L104.952,474.507z M135.019,161.323
			c0-18.311,14.896-33.207,33.208-33.207h229.078c18.311,0,33.207,14.896,33.207,33.207v263.374
			c0,18.312-14.896,33.207-33.207,33.207H168.227c-18.311,0-33.208-14.896-33.208-33.207V161.323z" />
    </g>
  </g>
</svg>