<svg xmlns="http://www.w3.org/2000/svg" xmlns:xlink="http://www.w3.org/1999/xlink" width="400px" height="400px"
  viewBox="-100 -100 600 600" version="1.1">
  <defs>
    <clipPath id="image">
      <rect x="96" y="110" width="200" height="200" rx="20" ry="20" />
    </clipPath>
  </defs>
  <g id="group">
    <path fill="#939598"
      d="M 376.75 334.644531 C 386.175781 334.152344 393.699219 333.183594 393.699219 321.328125 C 393.699219 307.121094 396.824219 259.121094 397.960938 257.980469 C 399.097656 256.84375 399.664062 255.140625 399.664062 255.140625 L 399.664062 252.3125 C 388.671875 259.394531 377.46875 267.699219 376.730469 270.144531 Z" />
    <path fill="#a7a9ac"
      d="M 27.238281 269.96875 L 27.238281 334.875 C 27.722656 334.90625 28.203125 334.929688 28.6875 334.964844 C 32.203125 335.214844 48.570312 335.320312 69.84375 335.335938 L 69.84375 81.753906 C 48.050781 88.023438 25.0625 96.488281 2.132812 107.984375 C 2.132812 107.984375 0 107.714844 0 115.8125 L 0 247.179688 C 12.609375 255.109375 27.238281 265.3125 27.238281 269.96875 Z" />
    <path fill="#a7a9ac"
      d="M 372.425781 334.875 L 372.425781 269.96875 C 372.425781 265.3125 387.054688 255.109375 399.664062 247.183594 L 399.664062 115.8125 C 399.664062 107.714844 397.53125 107.984375 397.53125 107.984375 C 371.597656 94.984375 345.582031 85.84375 321.316406 79.394531 L 321.316406 335.335938 C 346.652344 335.335938 367 335.242188 370.972656 334.960938 C 371.464844 334.925781 371.945312 334.898438 372.425781 334.875 Z" />
    <path fill="#939598"
      d="M 5.964844 321.328125 C 5.964844 333.183594 13.488281 334.152344 22.914062 334.644531 L 22.914062 269.96875 C 22.195312 267.683594 10.988281 259.394531 0 252.3125 L 0 255.144531 C 0 255.144531 0.566406 256.847656 1.703125 257.988281 C 2.839844 259.125 5.964844 307.125 5.964844 321.328125 Z" />
    <path fill="#a7a9ac"
      d="M 74.171875 335.339844 C 125.074219 335.363281 199.832031 334.960938 199.832031 334.960938 C 199.832031 334.960938 266.679688 335.320312 316.992188 335.335938 L 316.992188 78.808594 L 319.082031 78.808594 C 252.554688 61.507812 199.832031 64.527344 199.832031 64.527344 C 199.832031 64.527344 142.558594 61.238281 72.074219 81.113281 L 74.171875 81.113281" />
    <image href="https://github.com/cartridge-gg/presets/blob/main/configs/dragark/icon.png?raw=true" x="96" y="110"
      width="200" height="200" clip-path="url(#image)" />
    <rect x="96" y="110" width="200" height="200" rx="20" ry="20" fill="none" stroke="#000000" stroke-width="4" />
  </g>
</svg>