<svg xmlns="http://www.w3.org/2000/svg" version="1.1" xmlns:xlink="http://www.w3.org/1999/xlink" width="32" height="32"><svg width="32" height="32" viewBox="0 0 32 32" fill="none" xmlns="http://www.w3.org/2000/svg">
<path d="M5.51594 2.50018L5.50698 2.50014C5.31922 2.49939 4.90221 2.49772 4.46895 2.61247C3.8925 2.76514 3.43203 3.06901 3.05203 3.44698L0.961401 5.51307L0.95459 5.51987C-0.00288799 6.47497 -0.000770728 7.56036 5.1595e-05 7.98187L0.000103866 8.01934V23.6581L5.1595e-05 23.6956C-0.000770728 24.1171 -0.00288806 25.2025 0.95459 26.1576L0.960515 26.1635L0.961416 26.1644L3.049 28.2275L3.0506 28.229L3.05211 28.2306C3.43224 28.6088 3.89219 28.9122 4.46895 29.065C4.90221 29.1797 5.31921 29.1781 5.50698 29.1773L5.51594 29.1773L5.55362 29.1772H12.5434L12.5444 26.4368H19.3311V29.1772H26.4464L26.484 29.1773L26.493 29.1773C26.6808 29.1781 27.0978 29.1797 27.531 29.065C28.1078 28.9123 28.5679 28.6087 28.948 28.2304L28.9494 28.229L28.951 28.2275L31.0386 26.1644C32.0034 25.2109 32.0009 24.1151 31.9999 23.6976L31.9999 23.6581V8.01934L31.9999 7.97991C32.0009 7.56241 32.0034 6.46661 31.0386 5.51309L28.951 3.44999L28.9494 3.44842L28.9478 3.44687C28.5677 3.06862 28.1078 2.76522 27.531 2.61247C27.0978 2.49772 26.6808 2.49939 26.493 2.50014L26.484 2.50018L26.4464 2.50028H5.55362L5.51594 2.50018Z" fill="#0F1410"></path>
<path d="M21.404 21.6241C21.404 21.3442 21.4012 18.8584 21.4012 18.8842H24.1916V21.6241H21.404Z" fill="#FBCB4A"></path>
<path d="M10.4755 21.6241H7.68782C7.68782 21.3442 7.68507 18.8584 7.68507 18.8842H10.4755V21.6241Z" fill="#FBCB4A"></path>
<path d="M10.5165 11.6057H21.4477V14.3456H10.5192C10.5192 14.0657 10.5165 11.5799 10.5165 11.6057Z" fill="#FBCB4A"></path>
<path fill-rule="evenodd" clip-rule="evenodd" d="M5.54949 4.56055H26.4422C26.8773 4.56055 27.1403 4.56055 27.4877 4.90708L29.5818 6.97668C29.9292 7.32001 29.9292 7.66655 29.9292 8.01309V23.6519C29.9292 23.9984 29.9292 24.345 29.5818 24.6883L27.4877 26.7579C27.1403 27.1044 26.8773 27.1044 26.4422 27.1044H21.3935V24.3641H10.4746L10.4735 27.1044H5.54949C5.11443 27.1044 4.85145 27.1044 4.50404 26.7579L2.4099 24.6883C2.0625 24.3417 2.0625 23.9984 2.0625 23.6519V8.01309C2.0625 7.66655 2.0625 7.32322 2.4099 6.97668L4.50404 4.90708C4.85145 4.56055 5.11443 4.56055 5.54949 4.56055ZM27.1403 7.66655C27.1403 7.66655 27.1403 7.32001 26.7929 7.32001H5.20209C4.85469 7.32001 4.85469 7.66655 4.85469 7.66655V23.9984C4.85469 23.9984 4.85469 24.345 5.20209 24.345H10.4728C10.473 24.1141 10.4755 21.8882 10.4755 21.6241H21.404V24.345H26.7929C27.1403 24.345 27.1403 23.9984 27.1403 23.9984V7.66655Z" fill="#FBCB4A"></path>
</svg><style>@media (prefers-color-scheme: light) { :root { filter: none; } }
@media (prefers-color-scheme: dark) { :root { filter: none; } }
</style></svg>